<svg width="21" height="21" viewBox="0 0 21 21" fill="none" xmlns="http://www.w3.org/2000/svg">
<path d="M15.75 1.75V3.5M5.25 1.75V3.5M2.625 7H18.375M2.1875 10.7126C2.1875 6.90025 2.1875 4.99363 3.283 3.80888C4.3785 2.625 6.1425 2.625 9.66875 2.625H11.3312C14.8575 2.625 16.6215 2.625 17.717 3.80975C18.8125 4.99363 18.8125 6.90025 18.8125 10.7135V11.1624C18.8125 14.9747 18.8125 16.8814 17.717 18.0661C16.6215 19.25 14.8575 19.25 11.3312 19.25H9.66875C6.1425 19.25 4.3785 19.25 3.283 18.0652C2.1875 16.8814 2.1875 14.9747 2.1875 11.1615V10.7126Z" stroke="#686872" stroke-width="1.5" stroke-linecap="round" stroke-linejoin="round"/>
<path d="M13.125 13.125H7.875M13.125 13.125C13.125 13.7375 11.3802 14.8829 10.9375 15.3125M13.125 13.125C13.125 12.5125 11.3802 11.368 10.9375 10.9375" stroke="#686872" stroke-width="1.5" stroke-linecap="round" stroke-linejoin="round"/>
</svg>
